<?xml version="1.0" encoding="UTF-8" standalone="no"?>
<!-- Created with Inkscape (http://www.inkscape.org/) -->

<svg
   xmlns:dc="http://purl.org/dc/elements/1.1/"
   xmlns:cc="http://creativecommons.org/ns#"
   xmlns:rdf="http://www.w3.org/1999/02/22-rdf-syntax-ns#"
   xmlns:svg="http://www.w3.org/2000/svg"
   xmlns="http://www.w3.org/2000/svg"
   xmlns:sodipodi="http://sodipodi.sourceforge.net/DTD/sodipodi-0.dtd"
   xmlns:inkscape="http://www.inkscape.org/namespaces/inkscape"
   width="278.561mm"
   height="29.633333mm"
   viewBox="0 0 987.02718 105"
   id="svg2"
   version="1.1"
   inkscape:version="0.91 r13725"
   sodipodi:docname="IT Logo 3.svg">
  <defs
     id="defs4">
    <pattern
       y="0"
       x="0"
       height="6"
       width="6"
       patternUnits="userSpaceOnUse"
       id="EMFhbasepattern" />
  </defs>
  <sodipodi:namedview
     id="base"
     pagecolor="#ffffff"
     bordercolor="#666666"
     borderopacity="1.0"
     inkscape:pageopacity="0"
     inkscape:pageshadow="2"
     inkscape:zoom="2.8284271"
     inkscape:cx="546.4644"
     inkscape:cy="51.064334"
     inkscape:document-units="px"
     inkscape:current-layer="layer1"
     showgrid="false"
     fit-margin-top="0"
     fit-margin-left="0"
     fit-margin-right="0"
     fit-margin-bottom="0"
     inkscape:window-width="1920"
     inkscape:window-height="1018"
     inkscape:window-x="-8"
     inkscape:window-y="-8"
     inkscape:window-maximized="1"
     showguides="false"
     inkscape:guide-bbox="true">
    <inkscape:grid
       type="xygrid"
       id="grid3378"
       originx="0.44238999"
       originy="127.2797" />
    <sodipodi:guide
       position="342.19642,203.41072"
       orientation="0,1"
       id="guide3382" />
    <sodipodi:guide
       position="342.73214,168.61161"
       orientation="0,1"
       id="guide3384" />
    <sodipodi:guide
       position="411.57142,204.75"
       orientation="0,1"
       id="guide3386" />
    <sodipodi:guide
       position="438.26785,163.07589"
       orientation="0,1"
       id="guide3388" />
    <sodipodi:guide
       position="498.87302,143.5514"
       orientation="0,1"
       id="guide3390" />
    <sodipodi:guide
       position="507.44353,126.30778"
       orientation="0,1"
       id="guide3392" />
    <sodipodi:guide
       position="411.60373,200.84836"
       orientation="0,1"
       id="guide3408" />
    <sodipodi:guide
       position="563.10155,166.95313"
       orientation="0,1"
       id="guide3422" />
    <sodipodi:guide
       position="608.91796,186.45703"
       orientation="0,1"
       id="guide3430" />
    <sodipodi:guide
       position="608.82811,182.85547"
       orientation="0,1"
       id="guide3432" />
    <sodipodi:guide
       position="684.51952,176.32422"
       orientation="0,1"
       id="guide3444" />
    <sodipodi:guide
       position="682.56925,171.75202"
       orientation="0,1"
       id="guide3446" />
    <sodipodi:guide
       position="842.03123,192.15625"
       orientation="0,1"
       id="guide3456" />
    <sodipodi:guide
       position="836.07811,176.32422"
       orientation="0,1"
       id="guide3458" />
    <sodipodi:guide
       position="716.85936,131.40625"
       orientation="1,0"
       id="guide3560" />
    <sodipodi:guide
       position="767.09373,138.17188"
       orientation="1,0"
       id="guide3570" />
    <sodipodi:guide
       position="764.10155,137.39063"
       orientation="1,0"
       id="guide3572" />
    <sodipodi:guide
       position="773.39842,142.76563"
       orientation="1,0"
       id="guide3574" />
    <sodipodi:guide
       position="787.1953,142.32813"
       orientation="1,0"
       id="guide3578" />
    <sodipodi:guide
       position="778.64061,126.30778"
       orientation="1,0"
       id="guide3582" />
    <sodipodi:guide
       position="782.14061,126.01563"
       orientation="1,0"
       id="guide3584" />
    <sodipodi:guide
       position="816.23436,143.33594"
       orientation="1,0"
       id="guide3586" />
    <sodipodi:guide
       position="819.38336,126.30778"
       orientation="1,0"
       id="guide3590" />
    <sodipodi:guide
       position="830.74217,126.07813"
       orientation="1,0"
       id="guide3592" />
    <sodipodi:guide
       position="838.19351,142.68883"
       orientation="1,0"
       id="guide3594" />
    <sodipodi:guide
       position="841.59093,126.17125"
       orientation="1,0"
       id="guide3596" />
    <sodipodi:guide
       position="671.01248,139.6781"
       orientation="0,1"
       id="guide3598" />
    <sodipodi:guide
       position="680.83463,129.33666"
       orientation="0,1"
       id="guide3600" />
    <sodipodi:guide
       position="849.14814,142.83798"
       orientation="1,0"
       id="guide3602" />
    <sodipodi:guide
       position="852.31907,125.6354"
       orientation="1,0"
       id="guide3604" />
    <sodipodi:guide
       position="866.10154,143.13281"
       orientation="1,0"
       id="guide3606" />
    <sodipodi:guide
       position="886.44139,138.10547"
       orientation="0,1"
       id="guide3608" />
    <sodipodi:guide
       position="881.37121,135.83873"
       orientation="1,0"
       id="guide3610" />
    <sodipodi:guide
       position="881.92917,135.8774"
       orientation="0,1"
       id="guide3612" />
    <sodipodi:guide
       position="881.55352,133.04897"
       orientation="0,1"
       id="guide3614" />
    <sodipodi:guide
       position="886.34858,133.52958"
       orientation="1,0"
       id="guide3616" />
    <sodipodi:guide
       position="889.78904,135.08594"
       orientation="1,0"
       id="guide3618" />
  </sodipodi:namedview>
  <metadata
     id="metadata7">
    <rdf:RDF>
      <cc:Work
         rdf:about="">
        <dc:format>image/svg+xml</dc:format>
        <dc:type
           rdf:resource="http://purl.org/dc/dcmitype/StillImage" />
        <dc:title />
      </cc:Work>
    </rdf:RDF>
  </metadata>
  <g
     inkscape:label="Layer 1"
     inkscape:groupmode="layer"
     id="layer1"
     transform="translate(172.75,-1540.1479)">
    <path
       style="fill:#000000"
       d="m 261.8,1644.7129 c -2.42022,-0.8924 -2.94147,-2.431 -2.95242,-8.715 -0.009,-5.257 0.45672,-6.8808 2.25114,-7.8459 1.3245,-0.7124 8.12235,-0.69 9.98595,-0.3516 1.60327,0.2911 2.20471,1.8375 2.51858,3.9069 l 0.057,1.5851 -1.61705,-0.01 -1.5911,0.01 c 0.23527,-2.3466 -2.89305,-2.0812 -4.96866,-2.0301 -2.96218,0.1774 -3.23339,0.3662 -3.23339,4.877 0,4.8233 -0.012,4.8205 4.18029,4.8094 3.44926,-0.01 3.78965,0.1421 3.98463,-1.4676 l 0.0377,-0.9363 3.1974,0 0,1.875 c 0,2.062 -0.64071,3.4966 -1.85784,4.1678 -1.06974,0.59 -8.47656,0.6806 -9.99105,0.1222 z m 20.54532,-0.1239 c -2.03541,-1.0884 -2.24532,-1.8634 -2.24532,-8.2911 0,-5.4038 0.0354,-5.7569 0.68076,-6.7947 1.06014,-1.7049 2.31402,-2.0554 7.3503,-2.0548 5.10516,6e-4 5.99151,0.301 7.04394,2.3881 0.61929,1.228 0.67476,1.7481 0.67206,6.3 -0.003,4.5879 -0.0565,5.0765 -0.71451,6.4896 -1.02336,2.1978 -1.98294,2.5218 -7.46829,2.5218 -3.5949,0 -4.43964,-0.089 -5.31894,-0.5589 z m 9.10266,-3.8051 c 0.85221,-0.3388 1.10202,-1.4206 1.10202,-4.7723 0,-4.4309 -0.0847,-4.5137 -4.61361,-4.5137 -4.47153,0 -4.47306,0 -4.63443,4.0187 -0.13776,3.4299 0.24729,5.0579 1.24635,5.2698 0.35844,0.076 0.92169,0.2038 1.25169,0.2841 0.80811,0.1966 4.96278,-0.014 5.64798,-0.2866 z m 102.25743,4.0672 c -0.54705,-0.1295 -1.31937,-0.5405 -1.7163,-0.9134 -1.23027,-1.1558 -1.47885,-2.4605 -1.48416,-7.7898 -0.004,-4.3625 0.0663,-5.0901 0.59505,-6.1306 1.13259,-2.2287 1.67457,-2.4194 6.87519,-2.4194 5.11791,0 5.84514,0.1993 6.61032,1.8119 0.25446,0.5362 0.51246,1.3882 0.63234,2.4276 l 0.006,1.4527 -1.4457,0 c -0.8463,0 -1.10344,0 -1.61862,0.01 0.002,-0.1808 -0.0489,-0.6795 -0.0803,-0.7803 -0.22869,-1.2018 -1.2537,-1.3039 -4.39313,-1.193 -3.85743,0.1414 -3.83908,0.2407 -3.8857,4.8063 -0.0491,4.8089 -0.17097,4.7992 4.18917,4.8208 3.12533,0.015 3.92591,-0.1428 4.16986,-1.4724 0.002,-0.3412 0.002,-0.6101 0.004,-0.9242 0.58201,-0.012 0.83414,-0.019 1.53706,-0.014 l 1.5221,0.011 -0.0221,2.1524 c -0.0258,2.5161 -0.64935,3.5357 -2.57811,4.0477 -1.48698,0.3946 -7.39488,0.4624 -8.91648,0.1023 z m 127.83948,-0.2746 c -2.22996,-1.0331 -2.34489,-1.5124 -2.34489,-9.7786 l 0,-7.2 1.5,0 1.58594,-0.01 0.0126,6.2651 c 8.2e-4,0.4089 0,0 0.007,2.3101 0.0155,5.3218 0.18805,4.9288 4.18272,4.9638 4.23236,0.037 4.39553,0.6672 4.36146,-7.2831 l -0.0268,-6.2481 1.57734,0 1.58839,0.011 -0.0884,7.039 c -0.0817,6.51 0.0791,7.3155 -0.475,8.2561 -1.20336,2.043 -1.94933,2.0848 -6.52079,2.174 -3.53796,0.069 -4.27737,-2e-4 -5.35932,-0.5015 z m 62.06052,0.2929 c -0.54705,-0.1395 -1.31937,-0.5588 -1.7163,-0.9317 -1.24236,-1.1672 -1.48911,-2.4579 -1.48911,-7.7898 0,-4.3565 0.0719,-5.0916 0.6,-6.1306 1.1325,-2.2285 1.67517,-2.4194 6.87657,-2.4194 5.11815,0 5.84355,0.1989 6.60894,1.8119 0.25446,0.5362 0.53199,1.6304 0.57375,2.4315 l 0.0407,1.4566 -1.43789,0 c -0.85281,0.01 -1.33272,0 -1.56416,0.01 l -0.084,-0.596 c -0.45312,-1.1918 -1.28767,-1.4711 -4.37359,-1.4704 -3.82618,7e-4 -3.94039,0.3225 -3.94039,4.8883 0,4.7703 0.0439,4.8208 4.18917,4.8208 3.29748,0 4.03888,-0.1959 4.20056,-1.457 0.0338,-0.2639 0.0119,-0.6585 0.0176,-0.938 0.30163,0 0.63062,0 1.47709,-0.011 l 1.5039,0.012 0.008,1.7172 c -0.002,1.8059 -0.40287,3.4386 -1.50294,4.1594 -0.65202,0.4272 -1.59306,0.5446 -4.90005,0.611 -2.25117,0.045 -4.54062,-0.032 -5.08764,-0.1716 z m 40.75056,-0.247 c -2.4075,-1.2095 -2.79636,-2.9166 -2.64798,-11.6245 l 0.092,-5.4 1.5,0 1.69887,0.011 -0.0285,5.989 c 0.0284,3.3101 -0.0132,6.274 0.40155,6.5105 0.36825,0.8134 2.14263,1.2271 4.58967,1.0701 3.31965,-0.2131 3.21,0.025 3.38838,-7.3655 l 0.0506,-6.2261 1.74944,0.011 1.70524,0 0.008,6.7696 c -0.0332,6.1633 -0.19194,6.8962 -0.76151,8.1838 -0.94023,2.1256 -2.16483,2.5817 -6.95151,2.5895 -2.98098,0 -3.96411,-0.1014 -4.79404,-0.5184 z m 80.24403,0.074 c -1.41438,-0.5011 -2.45877,-1.6865 -2.77377,-3.1485 -0.12444,-0.5775 -0.22275,-3.1425 -0.21846,-5.7 0.007,-4.2251 0.069,-4.7659 0.67794,-5.9188 1.07739,-2.0586 1.88409,-2.5119 7.28805,-2.4284 3.68958,-0.082 4.90425,-0.01 5.76843,0.3537 1.44453,0.6036 2.30526,2.0471 2.3067,3.8685 l -0.0156,1.3273 -1.58281,0 c -1.43457,0 -0.37974,-0.01 -1.89008,-0.01 -0.0518,-1.0716 -0.037,-1.1248 -0.33523,-1.4803 -0.37002,-0.4831 -2.59848,-0.3999 -3.9082,-0.4013 -2.80187,0 -3.72709,0.2848 -4.07767,0.643 -0.61333,0.6267 -1.01262,2.7639 -0.84898,5.8456 0.21972,3.5219 0.49754,3.7258 4.99469,3.7258 3.17313,0 3.46214,-0.169 3.89801,-0.7918 0.25686,-0.3667 0.46701,-1.0362 0.46701,-1.4878 l 0,-0.9924 -2.46395,0 -2.51367,0 -0.006,-1.361 0.002,-1.464 4.15073,0 4.27644,-0.01 -0.0131,3.2895 c 0,3.8527 -0.51735,5.0934 -1.98975,5.9911 -0.88233,0.5379 -1.49484,0.6041 -5.49306,0.5934 -3.09084,-0.01 -4.87578,-0.1452 -5.7,-0.4372 z m 44.90691,-0.6109 c -3.55182,-1.777 -5.62116,-4.6039 -6.93426,-9.473 -1.19157,-4.4185 -2.61933,-18.072 -4.96872,-47.5146 -1.67727,-21.0196 -3.27333,-37.557 -3.93048,-40.725 l -0.17112,-0.825 -453.12618,0 -453.12615,0 0,-2.7 0,-2.7 493.51359,0 493.51359,0 -0.16443,0.975 c -0.31512,1.8685 -4.3839,46.3736 -6.46587,70.725 -0.67008,7.8375 -1.41801,15.61 -1.66206,17.2721 -1.38144,9.4084 -4.63845,14.3621 -10.11579,15.3853 -0.77001,0.1439 -1.4718,0.1898 -1.55955,0.1021 -0.0877,-0.088 -0.15948,-22.412 -0.15948,-49.6095 l 0,-49.45 -20.55,0 -20.55,0 0,49.8 0,49.8 -0.70968,0 c -0.39033,0 -1.66536,-0.4781 -2.83341,-1.0624 z m -446.30764,-16.4874 2.89977,0 2.96606,0 3.47107,6.0272 4.46264,7.4137 c 0,0 0.003,-0.1083 0.002,-6.6966 l -10e-4,-6.75 1.65,0 1.65,0 0.005,8.6316 -0.002,8.62 -2.92337,0 -3.01321,0 -3.80079,-6.6619 -3.92578,-6.7087 -0.003,6.7681 10e-4,6.6002 -1.79886,0 -1.6348,0 -0.006,-8.5703 m 28.95198,1.9886 0,-6.7797 -2.625,-0.01 -2.61948,0 -0.006,-1.9279 0,-1.95 6.9,0 6.9,0 0,1.95 0,1.9224 -2.64157,0 -2.60452,0 -0.004,6.7875 0,6.5883 -1.65,0 -1.65,0 z m 15.14853,-2.0367 10e-4,-8.625 6.01398,0 c 5.32014,0 6.11043,0.063 6.85005,0.5483 1.20783,0.7922 1.68597,2.2122 1.68597,5.007 0,2.9331 -0.48297,4.0466 -2.04492,4.7145 l -1.10508,0.4725 0.92439,0.2493 c 1.58028,0.4262 2.15395,1.1798 2.15618,3.8543 l 0.002,2.4041 -1.69402,0 -1.83855,0 0.003,-1.7133 c -0.003,-0.9488 -0.1336,-1.9282 -0.28171,-2.1622 -0.20619,-0.3257 -1.10175,-0.4312 -3.82041,-0.45 l -3.72697,0 -0.006,2.1555 0.002,2.1711 -1.63754,0 -1.48132,-0.01 c -0.0295,-2.85 -0.004,-5.8819 -0.002,-8.6177 z m 10.78005,-0.2464 c 0.54171,-0.5417 0.64083,-2.8515 0.16086,-3.7483 -0.28152,-0.5261 -0.64822,-0.7131 -4.03828,-0.7131 l -3.78241,0.016 0,2.5094 0,2.4234 3.60983,-0.016 c 2.85324,0 3.6741,-0.096 4.05,-0.4714 z m 9.09909,8.8596 c 0.30131,-0.8222 1.53345,-4.2182 3.30702,-8.8382 l 3.22467,-8.4 2.12346,0 c 1.46878,0 1.97751,-0.023 2.46973,0 0.38952,1.0047 6.21073,16.3883 6.52714,17.2439 -0.82813,0 -0.97883,0.01 -1.95557,0.01 l -1.74075,0 -0.53613,-1.5044 -0.52831,-1.5356 -4.05877,-0.01 -4.00406,0.013 -0.57125,1.5531 -0.54029,1.478 -1.8241,0 c -1.13435,-0.01 -0.27163,-0.01 -1.89831,0 z m 11.66991,-6.296 c -0.35396,-0.8932 -2.50922,-6.3683 -2.82552,-7.1182 -0.32146,0.79 -2.1492,5.2772 -2.804,7.1197 1.79967,0 1.49517,-0.01 2.88792,-0.01 1.8288,0 1.35108,0.01 2.7416,0.01 z m 38.02351,-7.0677 -2.76562,0 -2.59766,0.01 -0.004,-1.9305 -0.004,-1.95 6.9,0 6.9,0 0,1.95 0,1.9227 -2.55,0.01 -2.54609,-0.01 10e-4,6.8648 -0.003,6.5055 -1.80821,0 -1.52306,0.01 0,-6.4594 c -8e-5,-1.8134 -10e-5,-4.7242 -10e-5,-6.9197 z m 25.16297,-3.8687 2.91629,-0.01 2.85,0 2.25,5.6549 2.52531,5.7 2.55,-5.6549 2.27469,-5.7 2.85,0 2.85,0 0.0796,8.625 -0.009,8.6195 -1.76576,-0.01 -1.62214,0.01 0.005,-6.8085 c -0.003,-2.8511 -0.003,-5.8211 -0.0112,-6.5581 l -3.05677,6.7721 -2.91129,6.5945 -1.24005,0 -1.48614,0 -2.68737,-6.6085 c -3.05654,-6.7625 -3.05423,-6.7616 -3.05423,-6.7616 0,0 -0.002,2.9123 -0.002,6.6345 l 0,6.7401 -1.74298,0 -1.56561,-0.01 c -0.011,-2.8671 4e-5,-6.6242 0.005,-8.6187 -0.006,-2.6634 5.9e-4,-5.791 -0.001,-8.6193 z m 27.40545,17.2278 c 0.55243,-1.4504 6.3068,-16.3661 6.64992,-17.234 l 2.0759,0 2.25815,0 c 0.19497,0.4679 1.75703,4.1735 3.37379,8.546 1.61679,4.3725 2.98544,8.0249 3.244,8.6951 l -1.82905,0 -1.80195,0 -0.5394,-1.5 -0.54721,-1.5469 -4.09319,0 -4.0346,0 -0.56674,1.5469 -0.55597,1.5 -1.75328,0 c -0.97344,0 -1.43842,-0.01 -1.88037,-0.017 z m 8.77595,-13.7411 -2.91798,7.236 c 0,0 -0.125,0 5.80933,-0.018 l -2.89135,-7.2182 z m 16.54235,5.3238 c 0.004,-2.8521 10e-4,-5.8713 0.003,-8.8338 l 2.72823,0.017 2.72363,10e-5 3.64356,6.7485 3.82322,6.9007 0.127,-6.8343 -0.006,-6.8149 1.5,0 1.54297,-0.01 0.0444,8.6515 -0.0454,8.6047 -2.79301,-0.01 -2.7383,0.01 -3.58583,-6.4484 c -1.83429,-3.1759 -3.58878,-6.2773 -3.97567,-6.9209 0.005,0.3438 7.6e-4,2.514 7.6e-4,6.7109 l 0,6.66 -1.5,0 -1.5,0 c 0.009,-2.895 0.009,-5.5171 0.008,-8.4333 z m 46.64463,-0.1835 -0.002,-8.6328 6.15,0 6.15,0 0,1.8 0,1.8 -4.42729,0 c -1.81151,-0.01 -3.27615,-0.01 -4.41469,-0.013 10e-4,0.4706 10e-4,0.9762 -0.008,1.9608 l 0.008,1.9634 4.26719,-0.011 4.275,0 0,1.8 0,1.6438 -4.28281,0 -4.26167,0.016 -0.006,3.3011 0,2.9918 -1.80459,0 -1.64446,0 c -0.002,-2.8073 -0.002,-6.488 10e-4,-8.6123 z m 15.69398,8.6096 c 0.6319,-1.741 1.5147,-4.2224 3.28827,-8.8424 l 3.22467,-8.4 2.12346,0 c 1.24423,-7e-4 1.87336,-7e-4 2.38636,0.01 0.19322,0.5123 6.30191,16.5358 6.57145,17.2354 -0.51954,4e-4 -0.91243,4e-4 -1.91651,0 l -1.78372,0 -0.49316,-1.5044 -0.51269,-1.5356 -4.07049,-0.011 -4.04311,0.013 -0.64548,1.6859 -0.50876,1.3539 -1.73453,-8e-4 c -0.82414,-0.01 -1.53744,-0.01 -1.88576,0 z m 11.6411,-6.5163 -2.88146,-7.2391 -2.82916,7.2438 c 2.05939,-0.01 3.6665,-0.01 5.71062,0 z m 37.9125,-0.064 0,-6.7602 -2.625,0.01 -2.625,-0.01 0,-1.95 0,-1.95 6.9,0 6.9,0 0,1.95 0,1.95 -2.64375,0.01 -2.40938,-0.01 -0.003,6.8844 -0.003,6.4547 -1.84727,0.01 -1.64415,0 0,-6.5883 z m 37.58698,-2.0257 5.3e-4,-8.6438 6.0625,0.01 c 6.56892,0 6.95268,0.084 7.96494,1.7441 0.46398,0.761 0.58215,1.5064 0.57951,3.6559 -0.004,3.166 -0.31272,3.9363 -1.95015,4.8637 -0.27213,0.1949 0,0 -0.84594,0.6056 1.3743,0.2645 0.114,0.074 0.3099,0.076 0.36207,0 1.03548,0.3293 1.49646,0.7259 0.76728,0.66 0.7929,0.9434 0.89454,3.1815 l -0.006,2.406 -1.58562,-0.013 -1.74187,0.011 -0.0641,-2.0065 c 0.01,-1.0702 -0.29129,-1.9664 -0.47797,-2.0764 -0.1245,-0.1244 -1.812,-0.2367 -3.75,-0.2497 l -3.73351,0.048 -0.0108,2.1142 -0.005,2.1806 -1.60278,0.01 -1.53099,-0.028 c 0.002,-2.8625 -0.006,-5.7707 -0.003,-8.608 z m 10.8416,-0.1168 c 0.54171,-0.5417 0.69552,-3.0858 0.21555,-3.9826 -0.28152,-0.5261 -0.16776,-0.6358 -4.10469,-0.635 l -3.80975,0 0,2.5484 0.008,2.4312 3.64889,0.01 c 2.85324,0.01 3.54129,0.1071 4.04219,-0.3699 z m 11.12226,0.01 0,-8.5224 1.70206,0 1.69101,0 -0.003,8.6471 0.002,8.6029 -1.58833,-0.01 -1.80927,-0.011 c -0.002,-2.7877 -0.002,-6.461 0.006,-8.7108 z m 10.94916,0.01 0,-8.5452 2.88561,0 2.88558,0.01 3.6777,6.3983 c 2.06691,3.508 4.2906,7.1769 4.2906,7.1769 0,0.012 -0.05,-1.8114 -0.0279,-6.9309 l -0.0221,-6.6488 1.69654,-0.01 1.56395,0.014 0.001,8.6356 0.0139,8.6212 -2.92766,-0.016 -2.90579,0.014 -3.92383,-6.7455 -4.03431,-6.6349 -0.003,6.743 0.008,6.6327 -1.53375,0 -1.64427,0 0,-8.7108 z m -371.69556,-27.9346 c -8.9727,-0.9363 -13.02351,-3.6199 -14.25777,-9.4455 -0.53949,-2.5463 -0.63144,-19.6902 -0.12057,-22.479 0.43074,-2.3515 1.89288,-5.0442 3.4041,-6.2691 3.87594,-3.1415 9.17007,-4.0612 23.3766,-4.0607 12.14001,3e-4 17.37939,0.5996 21.09864,2.4133 2.2812,1.1124 4.30575,3.2805 5.25342,5.6259 0.67881,1.68 0.69114,1.911 0.69114,12.9605 0,12.663 -0.0815,13.2557 -2.21256,16.0808 -2.07504,2.7509 -5.57127,4.2743 -11.6337,5.069 -3.85668,0.5055 -21.08328,0.5761 -25.5993,0.1048 z m 23.09556,-3.8655 c 4.92906,-0.6388 7.23408,-1.9523 8.30748,-4.734 0.48831,-1.2655 0.54252,-2.5169 0.54252,-12.5273 -0.21391,0.054 0.27257,-7.7361 -0.35355,-11.5192 -0.27455,-1.6589 -1.57611,-3.2639 -3.09645,-3.9822 -3.88756,-1.8366 -4.00997,-1.3071 -13.58355,-1.6352 -17.54982,-0.3187 -20.76126,0.734 -21.80181,7.1468 -0.40242,2.4801 -0.40242,17.8423 0,20.3224 0.73002,4.4991 2.76582,6.204 8.23536,6.8969 2.88969,0.366 18.98916,0.3896 21.75,0.032 z m 305.25,4.0228 c -4.90056,-0.6913 -9.25155,-2.6049 -11.48889,-5.0529 -2.78145,-3.0434 -2.88564,-3.5616 -2.99964,-14.9171 -0.10386,-10.3484 0.0514,-12.2426 1.19874,-14.6231 0.91374,-1.8959 3.50136,-4.3979 5.48994,-5.3083 4.01988,-1.8403 12.34347,-2.6695 24.35649,-2.4262 5.41332,0.1096 8.35416,0.2965 9.77319,0.6212 6.29691,1.4406 9.29559,4.7261 9.34962,10.2437 l 0.0204,2.1 -3.29448,0 -3.29448,0 -0.34521,-2.4287 c -0.54432,-3.8297 -1.34064,-4.9158 -4.29855,-5.8625 -3.77382,-1.2079 -19.84023,-1.0796 -25.48146,0.2035 -2.82615,0.6428 -4.72722,1.9312 -5.72325,3.8788 -0.74817,1.463 -0.76452,1.6356 -0.86532,9.15 -0.22428,16.7204 0.87498,19.2676 8.80275,20.3977 2.71347,0.3868 16.25766,0.3888 19.95,0 6.58335,-0.6879 7.99581,-1.8722 8.35746,-7.0077 l 0.19269,-2.7341 3.3,0 3.3,0 0,3.15 c 0,2.9685 -0.0536,3.2451 -0.93069,4.8 -1.64154,2.9103 -4.2426,4.3578 -9.50817,5.2916 -2.15379,0.3819 -5.20275,0.507 -13.86114,0.5688 -6.105,0.044 -11.505,0.022 -12,-0.048 z m -374.25037,-0.2866 c 0.002,-0.6456 3.7e-4,-8.6393 3.7e-4,-18.9221 l 0,-18.8506 -9.975,-0.01 -9.975,0 0,-1.95 0,-1.95 23.4,0 23.4,0 0,1.95 0,1.95 -9.96723,0 -9.97827,0.013 -0.005,18.9756 0.0112,18.7934 -3.33117,0 c -1.76309,0 -2.88409,0 -3.5794,-0.01 z m 93.15477,0 c -0.001,-1.0902 -0.004,-9.7965 -0.004,-21.0991 l -4.2e-4,-20.5812 3.3,0 3.3,0 0.007,18.8223 -0.009,18.9786 15.99462,-10e-5 15.82275,0.078 0,1.95 0,1.9266 -19.14917,0.01 c -15.14766,0.01 -18.21049,-0.088 -19.26205,-0.089 z m 43.79994,-0.015 c -0.0113,-3.5109 0.0122,-9.8021 0.006,-21.1047 l -0.0107,-20.561 20.7,0 20.7,0 0,1.95 0,1.95 -17.19062,0.01 -17.15938,0 0,7.1886 0,7.1973 16.43281,0.012 16.41719,-0.01 0,1.8 0,1.8 -16.44062,-0.01 -16.40938,0 0.0156,8.0333 -0.004,7.8692 17.15937,0 17.17891,0 0,1.95 0.004,1.9305 -20.65962,-0.014 c -16.34783,-0.011 -17.72006,0.01 -20.75099,0.01 z m 50.70312,0 c -0.004,-0.9619 0.008,-3.631 8.2e-4,-21.0837 l -0.008,-20.5812 17.1,0.026 c 14.72688,0.022 17.49552,0.097 19.95,0.5377 4.56852,0.8205 7.42767,2.3824 8.87178,4.8466 1.24158,2.1186 1.70667,4.3908 1.56381,7.6399 -0.25716,5.8481 -2.63043,8.4368 -8.77635,9.5729 -0.9663,0.1786 -1.80594,0.3738 -1.86585,0.4337 -0.0599,0.06 0.63516,0.1964 1.54461,0.3033 3.81717,0.4486 6.37176,1.8827 7.51449,4.2183 0.74934,1.5316 0.75891,1.6421 0.67878,7.8377 l -0.011,6.2685 -3.25901,-0.017 -3.32929,0.01 -0.0136,-5.4395 c -0.0155,-6.1688 -0.40893,-7.3976 -1.73856,-8.912 -1.95675,-2.2286 -4.5903,-2.567 -20.00013,-2.5703 l -11.63051,0 -0.009,8.4867 0.002,8.4399 -4.9037,-0.01 c -2.44036,-0.014 -1.68097,-0.01 -1.68097,-0.01 z m 34.49614,-21.141 c 4.21086,-0.7784 5.6823,-2.4425 6.1356,-6.9392 0.25179,-2.4977 0.009,-5.4204 -0.53448,-6.4286 -0.51555,-0.9568 -1.67022,-1.8656 -3.06327,-2.4111 -1.19754,-0.4689 -2.89416,-0.5363 -15.81645,-0.6284 l -14.475,-0.1031 0,8.4182 0,8.4183 12.99489,0 c 8.07369,0 13.66287,-0.1235 14.75871,-0.3261 z m 16.62332,21.148 c 0.92209,-1.6863 5.19862,-9.5869 11.5234,-20.9719 l 11.49957,-20.7 4.83308,0 4.8956,0 0.68066,0.9683 c 1.22691,1.9098 22.12685,40.1292 22.43989,40.7178 -0.91725,-0.01 -1.80355,-0.01 -3.3543,-0.01 l -3.40005,10e-4 -2.41651,-4.4043 -2.33987,-4.2691 -16.26134,0 -16.21718,0 -2.50239,4.425 -2.41648,4.2531 -5.24268,-0.01 c -0.78177,0 -1.7214,-6e-4 -1.7214,-6e-4 z m 41.73343,-13.2399 c -1.26257,-2.2838 -13.32254,-24.0394 -13.63614,-24.5859 -0.3964,0.6565 -13.07971,23.1495 -13.89132,24.5789 4.85585,0 7.65717,0.013 13.66995,0.01 5.54353,-0.01 9.38384,-0.01 13.85751,0 z m 19.33927,13.2461 c -0.005,-0.3118 -0.0419,-9.8256 9.1e-4,-21.1281 l -4.2e-4,-20.55 5.54619,0 5.54619,0 17.47473,19.0486 c 9.61113,10.4768 16.90748,18.2112 18.22971,19.6024 0.006,-1.4955 0.0177,-6.8254 0.0119,-19.5017 l -0.009,-19.1493 c 0,0 2.15,0 3.225,9e-4 1.11927,0 3.21719,10e-4 3.21719,10e-4 l 0.008,20.8383 -0.004,20.8382 c 0,0 -3.68705,-5e-4 -5.5303,0 -1.86891,6e-4 -5.60063,0 -5.60063,0 l -17.38244,-18.807 c -18.28515,-18.9699 -17.65388,-18.3435 -18.28375,-18.9704 -10e-4,0.5031 0.001,3.1006 0.001,18.8734 l -0.004,18.904 -4.78536,0 -1.6612,0 z m 116.40472,0 c -0.004,-1.0003 -0.004,-9.7946 0.006,-21.1081 l -0.0107,-20.5721 20.4,0 20.4,0.01 0,1.9422 0,1.9617 -16.87891,0 -16.88672,-10e-5 0,7.1933 -0.004,7.1972 16.14453,0 16.125,-0.01 0,1.8078 0,1.8 -16.11395,0 -16.15168,0 -0.004,7.9512 0,7.9551 16.89844,-2e-4 16.87109,0 0,1.95 -0.004,1.9305 -20.32579,0 c -16.10781,-8e-4 -18.9534,-9e-4 -20.46596,8e-4 z m -519.45411,-5.5393 c 10e-4,-0.513 -2.3e-4,-8.1309 -2.3e-4,-17.5909 l 0,-17.2 2.25243,0 2.25243,0 -0.005,17.3306 7.3e-4,17.4645 -2.11339,0.01 c -1.16878,-0.015 -1.99686,-0.015 -2.38705,-0.013 z m 10.20056,8e-4 c -1e-5,-0.2858 -7.9e-4,-8.1314 -7.9e-4,-17.5914 l 0.004,-17.2078 3.675,0 3.65156,0 11.39901,15.9206 c 6.25863,8.7412 11.86496,16.4385 11.85937,16.1471 -0.009,-0.4958 0.0112,-7.4148 0.0112,-16.167 l -0.004,-15.9054 2.17891,0.01 2.16328,0 0.0117,17.4141 -0.0156,17.3828 -3.63038,0 -3.6421,0 -11.35833,-15.7777 c -6.25995,-8.6956 -11.70909,-15.6955 -12.12352,-16.2425 0.002,1.1443 0.02,3.79 0.02,16.1126 l -0.0156,15.9133 -1.89217,0 c -1.04002,0 -1.84549,-0.01 -2.29141,0 z"
       id="path3349"
       inkscape:connector-curvature="0"
       sodipodi:nodetypes="cccscccccsscccsccccscscccsccsssccccsccscccccccssccscsccccscccsssscccscscccscscccccccsscscccccccccccccccsccccccccccsccccsccccsscscccccccscccccccccccccccsssccscccccsccccccscccccccccccccccccccccccccccccccccccsccsscccccccccccccccccccccccccccccccccccccccccccccccccccccccccccccccccccccccccccccccccccccccccccccccccccssccccccccccccccccccccccccccccccccscccccccccccccccccccscccccccccccccccccccccccccccccccccccccccsccccccccccccccccccccsccccccccccsccccccscscccccccccccccccccscsccccccccscscccsccccscsscscsccccccccscccccccccccccccccsccccccccccccccccscccccccccsccccsccccccccccsccccccsssccccscccccccccccccccscccccccccccccccccccccccccccccccccccccccccccscccccccccccccccccccccccccccscccsccccccscccccccsscccccccscsccccscccccccscccccccsccc" />
  </g>
  <g
     inkscape:groupmode="layer"
     id="layer2"
     inkscape:label="Layer 2"
     transform="translate(-0.75,-126)" />
</svg>
